<svg width="37" height="50" fill="none" xmlns="http://www.w3.org/2000/svg"><path fill-rule="evenodd" clip-rule="evenodd" d="M25.156 18.563l5.907-5.907-1.061-1.06-5.907 5.906 1.06 1.06zm0 7.594l5.907-5.907-1.061-1.06-5.907 5.906 1.06 1.06zm0 7.594l5.907-5.907-1.061-1.06-5.907 5.906 1.06 1.06zM1.529 8.437L7.436 2.53 6.375 1.47.468 7.376l1.061 1.06zm0 7.594l5.907-5.907-1.061-1.06L.468 14.97l1.061 1.061zm0 7.594l5.907-5.906-1.061-1.061-5.907 5.906 1.061 1.061zm0 8.438l5.907-5.906-1.061-1.061-5.907 5.907 1.061 1.06z" fill="#858685"/><path fill-rule="evenodd" clip-rule="evenodd" d="M5.313.19l7.186 7.186-1.06 1.06-4.627-4.625v5.473L12.5 14.97l-1.06 1.061-4.627-4.626v5.473l5.687 5.687-1.06 1.06L6.812 19v6.317l5.687 5.687-1.06 1.06-4.627-4.626v21.816h-1.5V.189zM28.94 10.315l7.186 7.187-1.06 1.06-4.627-4.626v5.473l5.687 5.687-1.06 1.06-4.627-4.626v5.473l5.687 5.687-1.06 1.06-4.627-4.625v20.128h-1.5V10.315z" fill="#000"/></svg>