<svg width="1686.5" height="348" viewBox="0 0 390 121" fill="none" xmlns="http://www.w3.org/2000/svg"><path d="M192.984 121V97.667m0 0h34.736m-34.736 0h-37.588m202.371 0h-48.663m48.663 0l-3.86-82.085m3.86 82.085L466 112.103M309.104 97.667h-43.461m43.461 0V33.544M227.72 97.667v-76.21m0 76.21h37.923m-110.247 0v-76.21m0 76.21l-43.964-5.204m0 0v22.494m0-22.494L69.313 74.36M-100 50.834l73.33-11.614 4.691-.743a20 20 0 0111.027 1.38l32.777 14.089m47.488 20.413l8.413-48.192a20 20 0 017.362-12.3L97.672 4M69.313 74.359L21.825 53.946m0 0L27.698 4m237.945 93.667v15.779" stroke="#797886" stroke-width="10"/><path d="M120.213 104.459h6.722l-.805 1.601h-4.75l-1.167-1.601z" fill="#fff"/><path d="M120.213 99.756l3.361-.578v5.504l-3.361.578v-5.504z" fill="#B5B5B5"/><path d="M126.936 99.756l-3.362-.578v5.504l3.362.578v-5.504z" fill="#DADADA"/><path d="M140.529 89.184h6.723l-.805 1.6h-4.75l-1.168-1.6z" fill="#fff"/><path d="M140.529 84.48l3.361-.578v5.504l-3.361.578V84.48z" fill="#B5B5B5"/><path d="M147.252 84.48l-3.361-.578v5.504l3.361.578V84.48z" fill="#DADADA"/><path d="M288.895 87.896h5.082l-.608 1.21h-3.592l-.882-1.21z" fill="#fff"/><path d="M288.895 84.34l2.541-.438v4.162l-2.541.437v-4.162z" fill="#B5B5B5"/><path d="M293.979 84.34l-2.542-.438v4.162l2.542.437v-4.162z" fill="#DADADA"/><path d="M166.213 39.55h7.218l-.864 1.72h-5.101l-1.253-1.72z" fill="#fff"/><path d="M166.213 34.5l3.609-.62v5.91l-3.609.62V34.5z" fill="#B5B5B5"/><path d="M173.432 34.5l-3.609-.62v5.91l3.609.62V34.5z" fill="#DADADA"/><path d="M140.193 28.472h7.218l-.864 1.718h-5.1l-1.254-1.718z" fill="#fff"/><path d="M140.193 23.421l3.609-.62v5.91l-3.609.62v-5.91z" fill="#B5B5B5"/><path d="M147.412 23.421l-3.609-.62v5.91l3.609.62v-5.91z" fill="#DADADA"/><path d="M166.213 54.155h7.218l-.864 1.718h-5.101l-1.253-1.718z" fill="#fff"/><path d="M166.213 49.104l3.609-.62v5.91l-3.609.62v-5.91z" fill="#B5B5B5"/><path d="M173.432 49.104l-3.609-.62v5.91l3.609.62v-5.91z" fill="#DADADA"/><path d="M139.521 53.65h7.219l-.865 1.718h-5.1l-1.254-1.719z" fill="#fff"/><path d="M139.521 48.599l3.61-.621v5.91l-3.61.62v-5.91z" fill="#B5B5B5"/><path d="M146.74 48.599l-3.609-.621v5.91l3.609.62v-5.91z" fill="#DADADA"/><path d="M235.539 64.36h5.875l-.703 1.4h-4.152l-1.02-1.4z" fill="#fff"/><path d="M235.539 60.25l2.938-.506v4.81l-2.938.506v-4.81z" fill="#B5B5B5"/><path d="M241.414 60.25l-2.938-.506v4.81l2.938.506v-4.81z" fill="#DADADA"/><path d="M235.539 54.61h5.875l-.703 1.4h-4.152l-1.02-1.4z" fill="#fff"/><path d="M235.539 50.5l2.938-.506v4.81l-2.938.506V50.5z" fill="#B5B5B5"/><path d="M241.414 50.5l-2.938-.506v4.81l2.938.506V50.5z" fill="#DADADA"/><path d="M235.539 44.203h5.875l-.703 1.399h-4.152l-1.02-1.399z" fill="#fff"/><path d="M235.539 40.092l2.938-.505v4.81l-2.938.506v-4.811z" fill="#B5B5B5"/><path d="M241.414 40.092l-2.938-.505v4.81l2.938.506v-4.811z" fill="#DADADA"/><path d="M212.039 42.539h5.875l-.703 1.398h-4.152l-1.02-1.398z" fill="#fff"/><path d="M212.039 38.428l2.938-.506v4.81l-2.938.506v-4.81z" fill="#B5B5B5"/><path d="M217.914 38.428l-2.938-.506v4.81l2.938.506v-4.81z" fill="#DADADA"/><path d="M318.633 76.874h6.211l-.744 1.48h-4.389l-1.078-1.48z" fill="#fff"/><path d="M318.633 72.528l3.105-.534v5.086l-3.105.534v-5.086z" fill="#B5B5B5"/><path d="M324.844 72.528l-3.106-.534v5.086l3.106.534v-5.086z" fill="#DADADA"/><path d="M89.342 96.414l4.994 2.484-1.19.892-3.528-1.756-.276-1.62z" fill="#fff"/><path d="M91.08 92.919l2.71.813-2.034 4.09-2.711-.814 2.034-4.09z" fill="#B5B5B5"/><path d="M96.073 95.403l-2.283-1.671-2.035 4.09 2.284 1.671 2.034-4.09z" fill="#DADADA"/><path d="M67.754 88.415l7.244 3.603-1.726 1.294-5.118-2.547-.4-2.35z" fill="#fff"/><path d="M70.276 83.346l3.932 1.179-2.95 5.931-3.933-1.18 2.951-5.93z" fill="#B5B5B5"/><path d="M77.52 86.95l-3.312-2.425-2.95 5.931 3.311 2.425 2.951-5.932z" fill="#DADADA"/><path d="M84.65 22.113l7.244 3.604-1.725 1.293-5.119-2.546-.4-2.35z" fill="#fff"/><path d="M87.173 17.044l3.931 1.18-2.95 5.931-3.932-1.18 2.95-5.93z" fill="#B5B5B5"/><path d="M94.417 20.648l-3.312-2.424-2.951 5.93 3.312 2.426 2.95-5.932z" fill="#DADADA"/><path d="M48.768 79.19l6.321 3.145-1.506 1.129-4.466-2.222-.35-2.052z" fill="#fff"/><path d="M50.968 74.767l3.431 1.029-2.575 5.176-3.431-1.03 2.575-5.175z" fill="#B5B5B5"/><path d="M57.29 77.912l-2.89-2.116-2.575 5.176 2.89 2.116 2.575-5.176z" fill="#DADADA"/><path d="M30.898 35.494v7.06l-1.68-.845v-4.99l1.68-1.225z" fill="#fff"/><path d="M35.84 35.494l.607 3.53h-5.78l-.608-3.53h5.781z" fill="#B5B5B5"/><path d="M35.84 42.554l.607-3.53h-5.78l-.608 3.53h5.781z" fill="#DADADA"/><path d="M1.09 36.237l5.4 2.686-1.287.964-3.815-1.898-.298-1.752z" fill="#fff"/><path d="M2.97 32.459l2.931.879-2.2 4.42-2.93-.878 2.2-4.421z" fill="#B5B5B5"/><path d="M8.37 35.145l-2.468-1.807-2.2 4.42 2.469 1.808 2.2-4.42z" fill="#DADADA"/><path d="M299.234 40.32v5.248l-1.249-.629v-3.707l1.249-.911z" fill="#fff"/><path d="M302.904 40.32l.451 2.624h-4.295l-.452-2.623h4.296z" fill="#B5B5B5"/><path d="M302.904 45.567l.451-2.623h-4.295l-.452 2.623h4.296z" fill="#DADADA"/><path d="M316.02 46.637v5.247l-1.25-.629v-3.707l1.25-.911z" fill="#fff"/><path d="M319.69 46.637l.451 2.623h-4.296l-.451-2.623h4.296z" fill="#B5B5B5"/><path d="M319.69 51.883l.451-2.623h-4.296l-.451 2.623h4.296z" fill="#DADADA"/><path d="M362.352 29.515v5.247l-1.25-.629v-3.707l1.25-.911z" fill="#fff"/><path d="M366.022 29.515l.451 2.623h-4.296l-.451-2.623h4.296z" fill="#B5B5B5"/><path d="M366.022 34.762l.451-2.624h-4.296l-.451 2.624h4.296z" fill="#DADADA"/><path d="M362.352 38.915v5.247l-1.25-.628v-3.708l1.25-.91z" fill="#fff"/><path d="M366.022 38.915l.451 2.624h-4.296l-.451-2.624h4.296z" fill="#B5B5B5"/><path d="M366.022 44.162l.451-2.623h-4.296l-.451 2.623h4.296z" fill="#DADADA"/></svg>