<svg width="67" height="32" fill="none" xmlns="http://www.w3.org/2000/svg"><path fill-rule="evenodd" clip-rule="evenodd" d="M13.85 26.568a4 4 0 00-3.97 0l-8.384 4.79-.992-1.736 8.384-4.79a6 6 0 015.954 0l5.903 3.373a4 4 0 003.97 0l5.903-3.374a6 6 0 015.954 0l5.903 3.374a4 4 0 003.97 0l5.903-3.374a6 6 0 015.953 0l8.385 4.791-.993 1.737-8.384-4.791a4 4 0 00-3.969 0l-5.904 3.373a6 6 0 01-5.953 0l-5.904-3.373a4 4 0 00-3.969 0l-5.903 3.373a6 6 0 01-5.954 0l-5.903-3.373z" fill="#1D1F1D"/><path fill-rule="evenodd" clip-rule="evenodd" d="M14.19 14.755a4 4 0 00-4.65 0l-7.96 5.684-1.162-1.627 7.959-5.685a6 6 0 016.974 0l5.053 3.61a4 4 0 004.65 0l5.053-3.61a6 6 0 016.974 0l5.053 3.61a4 4 0 004.65 0l5.052-3.61a6 6 0 016.975 0l7.959 5.685-1.163 1.627-7.958-5.684a4 4 0 00-4.65 0l-5.053 3.608a6 6 0 01-6.975 0l-5.052-3.608a4 4 0 00-4.65 0l-5.052 3.608a6 6 0 01-6.975 0l-5.053-3.608z" fill="#858685"/><path fill-rule="evenodd" clip-rule="evenodd" d="M13.85 3.286a4 4 0 00-3.97 0l-8.384 4.79L.504 6.34l8.384-4.79a6 6 0 015.954 0l5.903 3.373a4 4 0 003.97 0l5.903-3.374a6 6 0 015.954 0l5.903 3.374a4 4 0 003.97 0l5.903-3.374a6 6 0 015.953 0l8.385 4.791-.993 1.737-8.384-4.791a4 4 0 00-3.969 0l-5.904 3.373a6 6 0 01-5.953 0l-5.904-3.373a4 4 0 00-3.969 0l-5.903 3.373a6 6 0 01-5.954 0L13.85 3.286z" fill="#1D1F1D"/></svg>