<svg width="100" height="16" fill="none" xmlns="http://www.w3.org/2000/svg"><path fill-rule="evenodd" clip-rule="evenodd" d="M31.765 0H.89v16h30.873V0zM2.11 1.68v5.431h2.87c.596 0 1.077-.142 1.444-.427.367-.29.55-.672.55-1.148 0-.388-.113-.71-.34-.97-.228-.258-.458-.413-.691-.465.14-.052.282-.17.427-.357a1.06 1.06 0 00.225-.675c0-.455-.163-.799-.49-1.031-.325-.238-.739-.357-1.24-.357H2.11zm2.545 4.09h-.877v-.9h.877c.15 0 .269.043.357.131.093.083.14.191.14.326a.415.415 0 01-.14.326.52.52 0 01-.357.116zm-.031-2.064h-.846v-.73h.846c.114 0 .207.037.28.109a.341.341 0 01.116.271.324.324 0 01-.117.256.414.414 0 01-.28.094zm8.178 3.343l-1.574-2.063c.31-.156.553-.368.73-.637.175-.274.263-.581.263-.923 0-.507-.186-.923-.559-1.249-.372-.33-.866-.496-1.482-.496H7.559v5.43h1.668v-1.94h.233l1.443 1.94H14.5l.395-1.016h1.769l.388 1.016h1.792L16.602 1.65h-1.59l-2.21 5.399zM9.986 3.954h-.76v-.877h.76c.156 0 .28.039.373.117a.383.383 0 01.147.318.404.404 0 01-.147.325.563.563 0 01-.373.117zm6.189.892h-.8l.404-1.288.396 1.288zm3.082-3.165v5.43h1.598V4.474l2.11 2.637h1.374v-5.43h-1.583v2.622l-2.08-2.622h-1.42zm5.902 0v5.43h2.29c.889 0 1.616-.253 2.18-.76.563-.507.845-1.159.845-1.955s-.282-1.448-.846-1.955c-.563-.507-1.29-.76-2.18-.76H25.16zm2.18 3.995h-.511v-2.56h.512c.455 0 .804.109 1.047.326.243.217.365.535.365.954 0 .419-.122.737-.365.954-.243.217-.592.326-1.047.326zM7.403 14.707L5.78 12.581c.31-.155.553-.367.73-.636.175-.274.263-.581.263-.923 0-.507-.186-.923-.558-1.249-.373-.33-.867-.496-1.482-.496H2.11v5.43h1.668v-1.94h.233l1.443 1.94h1.948zM4.539 11.55h-.76v-.877h.76a.56.56 0 01.372.117.383.383 0 01.147.318.404.404 0 01-.147.325.563.563 0 01-.372.117zm5.796 1.745c-.352 0-.641-.121-.869-.364-.222-.249-.334-.561-.334-.94 0-.377.112-.687.334-.93.228-.248.517-.372.87-.372.35 0 .638.124.86.372.228.243.342.553.342.93 0 .379-.114.691-.342.94-.222.243-.51.364-.86.364zm0 1.52c.838 0 1.531-.273 2.08-.822a2.74 2.74 0 00.822-2.001c0-.781-.274-1.446-.822-1.994-.549-.553-1.242-.83-2.08-.83-.838 0-1.534.277-2.087.83a2.715 2.715 0 00-.822 1.994c0 .776.274 1.44.822 1.994.553.553 1.25.83 2.087.83zm6.334-1.52c-.351 0-.64-.121-.869-.364-.222-.249-.333-.561-.333-.94 0-.377.111-.687.333-.93a1.13 1.13 0 01.87-.372c.351 0 .638.124.86.372.228.243.342.553.342.93 0 .379-.114.691-.341.94-.223.243-.51.364-.861.364zm0 1.52c.838 0 1.532-.273 2.08-.822a2.74 2.74 0 00.822-2.001c0-.781-.274-1.446-.822-1.994-.548-.553-1.241-.83-2.08-.83-.838 0-1.533.277-2.087.83a2.715 2.715 0 00-.822 1.994c0 .776.274 1.44.822 1.994.554.553 1.25.83 2.087.83zm5.233-5.538H20.25v5.43h1.613v-3.04l.8 1.295h.9l.768-1.296v3.041h1.598v-5.43h-1.645l-1.195 1.931-1.187-1.931z" fill="#858685"/><path d="M33.22 0h3.38v11.777h-3.378V0zm0 13.232h3.38v2.769h-3.378v-2.769zm8.882-7.972L43.2 1.538h.344l-.278 1.105-1.171 3.954h-.33l.337-1.337zm-1.275-3.722l.924 3.687.278 1.372h-.344l-1.296-5.059h.438zm4.197 3.687l.91-3.687h.438l-1.293 5.06h-.344l.289-1.373zm-1.442-3.687l1.084 3.722L45 6.597h-.33l-1.147-3.954-.282-1.105h.34zm6.761 4.694v.365h-2.845v-.365h2.845zm-2.717-4.694v5.06H47.2v-5.06h.427zm2.363 2.27v.364h-2.491v-.365h2.491zm.337-2.27v.369h-2.828v-.369h2.828zm2.665 2.627h-1.425l-.007-.361h1.227c.25 0 .463-.036.64-.108a.829.829 0 00.399-.32.955.955 0 00.139-.528.952.952 0 00-.136-.528.79.79 0 00-.406-.313c-.18-.067-.408-.1-.681-.1h-1.063v4.69h-.428V1.538h1.49c.258 0 .488.026.692.077.204.05.378.13.521.24.144.108.253.246.327.413.077.164.115.361.115.59 0 .21-.047.398-.14.567a1.126 1.126 0 01-.392.41c-.167.104-.367.17-.6.195l-.272.135zm-.031 2.432h-1.53l.219-.365h1.31c.25 0 .463-.041.64-.125a.94.94 0 00.41-.364 1.07 1.07 0 00.142-.563c0-.193-.042-.365-.126-.518a.877.877 0 00-.382-.361c-.171-.09-.389-.136-.653-.136h-.886l.007-.361h1.254l.077.128c.227.023.425.094.594.212a1.23 1.23 0 01.539 1.028c0 .306-.069.566-.206.779a1.29 1.29 0 01-.566.483c-.24.109-.522.163-.844.163zm5.775 0h-1.147l.007-.365h1.14c.363 0 .676-.08.938-.243.264-.164.468-.391.611-.68A2.24 2.24 0 0060.5 4.3v-.473c0-.292-.042-.556-.125-.792a1.697 1.697 0 00-.351-.605 1.542 1.542 0 00-.55-.389 1.782 1.782 0 00-.708-.135h-1.199v-.369h1.199c.315 0 .603.055.865.164.264.106.492.261.685.465.194.202.343.444.448.726.106.283.16.598.16.945V4.3c0 .347-.054.662-.16.945a2.002 2.002 0 01-1.14 1.192c-.266.106-.563.16-.89.16zm-.956-5.059v5.06h-.427v-5.06h.427zm7.381 4.694v.365h-2.846v-.365h2.845zm-2.718-4.694v5.06h-.427v-5.06h.427zm2.363 2.27v.364h-2.492v-.365h2.492zm.337-2.27v.369h-2.828v-.369h2.828zm3.788 3.815a.942.942 0 00-.07-.371.755.755 0 00-.23-.292 1.622 1.622 0 00-.424-.244 5.254 5.254 0 00-.66-.225 6.024 6.024 0 01-.684-.237 2.395 2.395 0 01-.525-.295 1.167 1.167 0 01-.33-.39 1.143 1.143 0 01-.115-.524c0-.194.042-.372.125-.531.084-.16.2-.298.351-.414a1.7 1.7 0 01.539-.267c.208-.063.437-.094.684-.094.355 0 .66.067.918.201.26.135.46.316.6.546a1.4 1.4 0 01.216.764h-.427c0-.22-.052-.416-.156-.587a1.04 1.04 0 00-.445-.407 1.517 1.517 0 00-.706-.149c-.278 0-.511.043-.701.129a.99.99 0 00-.428.337.807.807 0 00-.142.465c0 .12.023.232.07.334.046.1.12.193.225.281.107.086.247.167.42.243.174.075.388.145.643.212.269.075.508.157.716.247a2.2 2.2 0 01.528.313c.144.116.253.251.327.406.074.156.111.336.111.542a1.16 1.16 0 01-.497.97c-.155.113-.34.2-.552.26a2.651 2.651 0 01-1.362.003 2.073 2.073 0 01-.612-.267 1.414 1.414 0 01-.441-.472 1.374 1.374 0 01-.163-.688h.423c0 .213.043.392.129.538.086.146.2.264.34.355.144.09.302.156.473.198.174.04.347.059.521.059.267 0 .497-.04.692-.118.196-.079.348-.189.455-.33a.805.805 0 00.163-.5zm1.875-3.815v5.06h-.427v-5.06h.427zm5.025 2.655v1.8a1.3 1.3 0 01-.3.285 2.042 2.042 0 01-.569.274 2.953 2.953 0 01-.89.115c-.296 0-.568-.054-.816-.16a1.851 1.851 0 01-.646-.462 2.17 2.17 0 01-.42-.733 2.956 2.956 0 01-.147-.96v-.61c0-.348.046-.661.136-.939.09-.28.221-.52.392-.72.172-.198.378-.35.619-.454.243-.107.515-.16.817-.16.375 0 .691.065.948.194.257.13.458.308.601.535.146.225.236.48.271.765H75.4a1.54 1.54 0 00-.202-.556 1.115 1.115 0 00-.444-.414c-.193-.104-.442-.156-.748-.156-.245 0-.464.045-.656.136-.19.09-.35.218-.48.385s-.228.367-.295.601c-.067.232-.1.49-.1.775v.619c0 .296.036.564.11.802.077.239.186.444.327.615a1.433 1.433 0 001.164.532c.257 0 .476-.024.657-.073.18-.049.325-.107.434-.174a.977.977 0 00.24-.194V4.558h-1.359v-.365h1.783zm4.99-2.655v5.06h-.432L77.48 2.274v4.322h-.427V1.538h.427l2.915 4.323V1.538h.424zm1.813 0v5.06h-.427v-5.06h.427zm5.142 0v5.06h-.43l-2.909-4.323v4.322h-.427V1.538h.427l2.915 4.323V1.538h.424zM40.952 9.89h.43l1.87 4.454 1.873-4.454h.427l-2.137 5.059h-.327l-2.136-5.06zm-.133 0h.38l.044 2.849v2.21h-.424v-5.06zm4.493 0h.379v5.059h-.428v-2.21l.05-2.85zm3.388.302l-1.751 4.757h-.445l1.911-5.06h.31l-.025.303zm1.591 4.757l-1.754-4.757-.025-.302h.31l1.914 5.059h-.445zm-.312-1.786v.368h-2.686v-.368h2.686zm2.891 1.786h-1.147l.007-.365h1.14c.363 0 .676-.081.938-.243.264-.165.468-.392.611-.681.144-.29.216-.626.216-1.008v-.473a2.38 2.38 0 00-.125-.792 1.697 1.697 0 00-.352-.604 1.54 1.54 0 00-.548-.39 1.782 1.782 0 00-.71-.135h-1.198V9.89h1.199c.315 0 .603.054.865.163.264.106.492.262.684.466.195.201.344.443.449.726.106.282.16.597.16.945v.462c0 .347-.054.663-.16.945a2.003 2.003 0 01-1.14 1.192c-.266.106-.563.16-.89.16zm-.956-5.06v5.06h-.427v-5.06h.427zm7.38 4.695v.365h-2.846v-.365h2.846zM56.577 9.89v5.059h-.427v-5.06h.427zm2.363 2.269v.364h-2.492v-.364h2.492zm.337-2.27v.369h-2.829V9.89h2.829zm3.183.001v5.059h-.428v-5.06h.427zm5.142 0v5.059h-.431l-2.908-4.323v4.323h-.428v-5.06h.428l2.915 4.323V9.89h.424zm4.77 2.627h-1.424l-.007-.362h1.226c.25 0 .464-.036.64-.108a.83.83 0 00.4-.32.954.954 0 00.138-.527.951.951 0 00-.135-.529.79.79 0 00-.407-.312 1.97 1.97 0 00-.68-.101h-1.064v4.69h-.427V9.89h1.49c.257 0 .488.025.692.076.204.051.377.131.52.24.144.109.253.247.328.413.076.165.114.362.114.591 0 .208-.046.397-.139.566a1.127 1.127 0 01-.392.41c-.167.105-.368.17-.602.195l-.27.136zm-.03 2.432h-1.53l.22-.365h1.31c.25 0 .463-.042.639-.125a.94.94 0 00.41-.365 1.07 1.07 0 00.142-.563 1.07 1.07 0 00-.125-.518.876.876 0 00-.382-.361c-.172-.09-.39-.135-.654-.135h-.886l.007-.362h1.255l.076.129c.227.023.425.093.594.212a1.23 1.23 0 01.539 1.029c0 .305-.069.564-.205.777a1.284 1.284 0 01-.566.483 2.02 2.02 0 01-.845.164zm5.798-.365v.365h-2.845v-.365h2.845zM75.423 9.89v5.059h-.427v-5.06h.427zm2.363 2.269v.364h-2.491v-.364h2.49zm.337-2.27v.369h-2.828V9.89h2.828zm3.85 4.695v.365H79.35v-.365h2.623zM79.475 9.89v5.059h-.428v-5.06h.428zm5.055.302l-1.751 4.757h-.445l1.911-5.06h.31l-.025.303zm1.591 4.757l-1.754-4.757-.025-.302h.31l1.914 5.059h-.445zm-.312-1.786v.368h-2.686v-.368h2.686zm1.497-3.273h1.644c.35 0 .653.056.91.17.257.113.455.281.594.504.142.22.212.49.212.813a1.407 1.407 0 01-.566 1.14c-.176.13-.38.218-.612.267l-.149.056h-1.755l-.007-.365h1.47a1.3 1.3 0 00.66-.153c.176-.102.308-.236.396-.403.09-.17.136-.35.136-.542 0-.23-.05-.428-.15-.594a.951.951 0 00-.434-.39 1.65 1.65 0 00-.705-.135h-1.216v4.69h-.428V9.89zm3.124 5.059l-1.31-2.262.459-.004 1.306 2.22v.046h-.455zm4.465-5.059h.427v3.426c0 .38-.08.696-.24.948-.16.253-.375.442-.646.567a2.091 2.091 0 01-.893.187c-.336 0-.638-.062-.907-.187a1.47 1.47 0 01-.639-.567c-.155-.252-.233-.569-.233-.948V9.89h.424v3.426c0 .294.058.54.174.74.116.199.276.348.48.448.203.1.437.15.701.15.262 0 .495-.05.699-.15.203-.1.363-.25.48-.448.115-.2.173-.446.173-.74V9.89zm4.493 3.815a.94.94 0 00-.07-.372.754.754 0 00-.23-.292 1.622 1.622 0 00-.423-.243 5.253 5.253 0 00-.66-.226 6.042 6.042 0 01-.685-.236 2.39 2.39 0 01-.524-.296 1.167 1.167 0 01-.33-.389 1.144 1.144 0 01-.115-.524c0-.195.041-.372.125-.532.083-.16.2-.298.35-.414a1.7 1.7 0 01.54-.267c.208-.063.436-.094.684-.094.354 0 .66.067.917.202.26.134.46.316.601.545a1.4 1.4 0 01.216.765h-.428c0-.22-.052-.416-.156-.588a1.04 1.04 0 00-.445-.406c-.192-.1-.427-.15-.705-.15a1.7 1.7 0 00-.702.129.99.99 0 00-.427.337.807.807 0 00-.143.466c0 .12.023.231.07.333.046.1.121.194.225.282.107.085.247.167.42.243.175.074.389.145.644.212.268.074.507.156.715.247.209.09.385.194.529.312.143.116.252.252.326.407.074.155.111.336.111.542a1.159 1.159 0 01-.496.97c-.156.113-.34.2-.553.26a2.652 2.652 0 01-1.362.004 2.072 2.072 0 01-.611-.268 1.414 1.414 0 01-.442-.473 1.374 1.374 0 01-.163-.688h.424c0 .213.043.393.128.539.086.146.2.264.34.354.145.09.302.157.473.198.174.04.348.06.522.06.266 0 .496-.04.691-.119.197-.079.349-.189.455-.33a.805.805 0 00.163-.5z" fill="#858685"/></svg>